<?xml version="1.0" encoding="utf-8"?>
<!-- Generator: Adobe Illustrator 25.0.0, SVG Export Plug-In . SVG Version: 6.00 Build 0)  -->
<svg version="1.1" id="Layer_1" xmlns="http://www.w3.org/2000/svg" xmlns:xlink="http://www.w3.org/1999/xlink" x="0px" y="0px"
	 viewBox="0 0 647 486" style="enable-background:new 0 0 647 486;" xml:space="preserve">
<style type="text/css">
	.st0{fill:#F2F5FA;}
	.st1{fill:#D6D5DF;}
</style>
<g>
	<path class="st0" d="M646.9,174c0,102.6,0,205.3,0.1,307.9c0,3.4-0.7,4.1-4.1,4.1C430,485.9,217,485.9,4.1,486
		c-3.4,0-4.1-0.7-4.1-4.1c0.1-55,0.1-110,0.1-164.9c1.8,0,2.4-1.3,3.4-2.5C15.2,299.1,28.9,286,46.1,277
		c20.7-10.8,42.6-15.8,66.1-14.2c16.9,1.1,32.6,5.4,47.7,12.7c9.9,4.8,18.3,12,27.1,18.4c23.9,17.3,50.7,23.2,79.7,19
		c18.1-2.6,34.1-10,48.9-20.9c10.9-8,19.1-18.3,26.9-29.1c19.9-27.5,39.8-55.1,60.2-82.3c13.2-17.6,24.2-36.9,41.3-51.4
		c11.6-9.9,24.5-17.3,38.8-21.8c15.3-4.8,31-7.2,47.5-5.6c18.8,1.8,35.9,7.4,52,16.9c15.4,9.2,27.5,22.4,40.8,34.1
		C631.1,159.8,639,167,646.9,174z"/>
	<path class="st1" d="M646.9,174c-7.9-7.1-15.8-14.2-23.7-21.2c-13.3-11.7-25.4-24.9-40.8-34.1c-16-9.6-33.2-15.2-52-16.9
		c-16.4-1.6-32.1,0.8-47.5,5.6c-14.3,4.5-27.2,11.9-38.8,21.8C427,143.8,416,163,402.8,180.6c-20.4,27.2-40.2,54.8-60.2,82.3
		c-7.8,10.8-16,21-26.9,29.1c-14.7,10.8-30.8,18.3-48.9,20.9c-29,4.2-55.9-1.7-79.7-19c-8.9-6.4-17.2-13.6-27.1-18.4
		c-15.1-7.3-30.8-11.6-47.7-12.7c-23.6-1.6-45.4,3.4-66.1,14.2c-17.3,9-31,22.1-42.7,37.4c-0.9,1.2-1.6,2.6-3.4,2.5
		c0-104.3,0-208.6-0.1-312.9C0,0.7,0.7,0,4.1,0C217,0.1,430,0.1,642.9,0c3.4,0,4.1,0.7,4.1,4.1C646.9,60.7,646.9,117.4,646.9,174z
		 M201.3,114c-17.8-1.2-35.6,15.1-35.3,34.7c0.4,20.3,15.6,34.9,34.2,35c20.7,0,35.9-14.8,35.7-35.9
		C235.7,129.2,220.4,113.5,201.3,114z"/>
	<path class="st0" d="M201.3,114c19.1-0.6,34.4,15.2,34.6,33.8c0.2,21.1-15,36-35.7,35.9c-18.5,0-33.8-14.7-34.2-35
		C165.6,129.1,183.5,112.8,201.3,114z"/>
</g>
<path class="st1" d="M562.4,423.2c-3.3,1.3-6.8,2-10.3,1.9c-7.1,0-12.9-2.3-17.4-6.7c-4.5-4.5-6.8-10.2-6.8-17.2
	c-0.1-4.2,1-8.4,3.1-12.1c2.1-3.6,5.2-6.5,8.8-8.5c3.8-2.1,8.1-3.2,12.4-3.2c3.7,0,7.4,0.8,10.8,2.3c3.4,1.5,6.4,3.8,8.9,6.6
	l-5.7,5.4c-4.2-4.3-8.9-6.5-14.2-6.5c-2.1,0-4.2,0.4-6.2,1.2c-2,0.8-3.7,2-5.2,3.5c-1.5,1.5-2.7,3.3-3.5,5.2c-0.8,1.9-1.2,4-1.2,6.1
	c-0.1,2.9,0.7,5.8,2.1,8.3c1.4,2.4,3.4,4.4,5.8,5.7c2.6,1.4,5.4,2.1,8.3,2.1c2.5,0,4.9-0.5,7.2-1.5c2.6-1.3,4.9-3,6.8-5l5.5,5.7
	C568.5,419.7,565.3,421.9,562.4,423.2z"/>
<path class="st1" d="M545.8,436.2v8.1h-21.1c-4.3,0-8.5-1.7-11.6-4.8c-3.1-3-4.8-7.2-4.8-11.5v-51.6c0-4.3,1.7-8.4,4.8-11.5
	c3.1-3,7.2-4.8,11.6-4.8h21.1v8.1h-21.1c-2.2,0-4.3,0.9-5.8,2.4c-1.5,1.5-2.4,3.6-2.4,5.8v51.6c0,2.2,0.9,4.3,2.4,5.8
	c1.5,1.5,3.6,2.4,5.8,2.4H545.8z"/>
<path class="st1" d="M593,428.1c0,4.3-1.7,8.4-4.8,11.5c-3.1,3-7.2,4.8-11.6,4.8h-21.1v-8.1h21.1c2.2,0,4.3-0.9,5.8-2.4
	c1.5-1.5,2.4-3.6,2.4-5.8v-51.6c0-2.2-0.9-4.3-2.4-5.8c-1.5-1.5-3.6-2.4-5.8-2.4h-21.1v-8.1h21.1c4.3,0,8.5,1.7,11.6,4.8
	c3.1,3,4.8,7.2,4.8,11.5V428.1z"/>
</svg>
