<svg width="233" height="34" viewBox="0 0 233 34" fill="none" xmlns="http://www.w3.org/2000/svg">
<g clip-path="url(#clip0_4_1519)">
<path d="M60.6395 10.5471C59.6443 9.42171 58.4198 8.5194 57.0472 7.89995C55.6746 7.28049 54.1852 6.95803 52.6778 6.95392C50.9216 6.9452 49.1933 7.39037 47.6624 8.24576C46.1814 9.04494 44.9466 10.229 44.0901 11.6715C43.2403 13.1557 42.8063 14.839 42.8331 16.5465C42.8331 19.36 43.7532 21.6988 45.5708 23.4954C47.3884 25.292 49.7591 26.2065 52.6099 26.2065C54.0329 26.231 55.4463 25.9701 56.7655 25.4394C57.9446 24.9397 59.2141 24.0451 60.5365 22.7733L58.3116 20.4645C57.5127 21.2917 56.5775 21.977 55.5462 22.4909C54.6365 22.889 53.6516 23.0892 52.6577 23.0781C51.4893 23.0867 50.3382 22.7976 49.3141 22.2386C48.3263 21.7004 47.5109 20.8969 46.961 19.9197C46.3958 18.8872 46.1091 17.7268 46.1289 16.5515C46.1177 15.7013 46.278 14.8575 46.6003 14.0698C46.9226 13.2822 47.4003 12.5667 48.0054 11.9656C48.6104 11.3645 49.3304 10.8899 50.123 10.5699C50.9155 10.2499 51.7646 10.0909 52.62 10.1023C54.7292 10.1023 56.6423 10.9793 58.3443 12.716L60.6395 10.5471Z" fill="#0086FF"/>
<path d="M48.0169 11.9713C47.4057 12.5684 46.9239 13.2833 46.6009 14.0723C46.278 14.8612 46.1208 15.7074 46.1389 16.559C46.1192 17.7343 46.4058 18.8947 46.9711 19.9272C47.5193 20.9002 48.331 21.701 49.3141 22.2386C50.3464 22.8022 51.5076 23.0914 52.6853 23.0781C53.6795 23.0885 54.6643 22.8874 55.5739 22.4884C56.6051 21.9745 57.5404 21.2892 58.3393 20.462L60.5641 22.7708C59.2342 24.0426 57.9647 24.9397 56.7932 25.4369C55.4739 25.9676 54.0606 26.2286 52.6376 26.204C49.7792 26.204 47.4085 25.292 45.5984 23.4929C43.7884 21.6938 42.8607 19.3575 42.8607 16.544C42.8339 14.8365 43.268 13.1532 44.1177 11.669C44.9671 10.2311 46.1919 9.04825 47.6624 8.24576C49.1926 7.38775 50.9209 6.93999 52.6778 6.94643C54.1853 6.95053 55.6746 7.273 57.0472 7.89245C58.4198 8.51191 59.6443 9.41421 60.6395 10.5396L58.3443 12.716C56.6524 10.9669 54.7292 10.1023 52.62 10.1023C51.7653 10.087 50.9163 10.2448 50.125 10.5662C49.3336 10.8875 48.6163 11.3656 48.0169 11.9713Z" fill="#0086FF"/>
<path d="M23.3975 20.472C22.5987 21.2992 21.6635 21.9846 20.6322 22.4984C19.7215 22.8965 18.7359 23.0967 17.7411 23.0856C16.5652 23.0958 15.4066 22.804 14.3774 22.2385C13.3891 21.7012 12.5734 20.8974 12.0243 19.9197C11.458 18.8876 11.1713 17.7269 11.1922 16.5515C11.1821 15.7019 11.3431 14.8589 11.6659 14.0722C11.9886 13.2854 12.4665 12.5708 13.0714 11.9705C13.6763 11.3702 14.396 10.8963 15.1881 10.5767C15.9801 10.2572 16.8285 10.0984 17.6833 10.1098C19.79 10.1098 21.7056 10.9868 23.4051 12.7234L25.7029 10.5471C24.7073 9.42139 23.4824 8.5189 22.1094 7.89943C20.7363 7.27996 19.2465 6.95767 17.7386 6.95392C15.9832 6.94483 14.2556 7.39003 12.7257 8.24575C11.2428 9.04663 10.0071 10.2334 9.15086 11.679C8.30111 13.1631 7.86706 14.8465 7.89387 16.554C7.89387 19.3675 8.8165 21.7063 10.6341 23.5029C12.4517 25.2995 14.8224 26.214 17.6732 26.214C19.0962 26.2385 20.5096 25.9776 21.8288 25.4469C23.0104 24.9472 24.2799 24.0526 25.5998 22.7808L23.3975 20.472Z" fill="#0086FF"/>
<path d="M21.8439 25.4469C20.5247 25.9776 19.1113 26.2385 17.6883 26.214C14.8324 26.214 12.4618 25.302 10.6492 23.5029C8.83662 21.7038 7.90896 19.3675 7.90896 16.554C7.88215 14.8465 8.3162 13.1632 9.16595 11.679C10.018 10.2354 11.2484 9.04882 12.7257 8.24576C14.2549 7.38742 15.9825 6.93962 17.7386 6.94643C19.2465 6.95018 20.7363 7.27247 22.1094 7.89194C23.4825 8.51141 24.7073 9.4139 25.7029 10.5396L23.4051 12.7235C21.7157 10.9744 19.79 10.1098 17.6833 10.1098C16.8279 10.0984 15.9789 10.2574 15.1863 10.5774C14.3938 10.8974 13.6737 11.372 13.0687 11.9731C12.4637 12.5742 11.9859 13.2897 11.6636 14.0773C11.3414 14.865 11.1811 15.7088 11.1922 16.559C11.1713 17.7344 11.458 18.8951 12.0243 19.9272C12.5746 20.9022 13.3901 21.7032 14.3774 22.2386C15.4088 22.8022 16.5692 23.0914 17.7461 23.0781C18.7411 23.0884 19.7268 22.8874 20.6372 22.4884C21.6685 21.9746 22.6038 21.2892 23.4026 20.462L25.6274 22.7708C24.295 24.0526 23.0255 24.9497 21.8439 25.4469Z" fill="#0086FF"/>
<path d="M87.2197 15.3896H81.4703V10.602H89.1832V7.42368H78.2072V25.7467H81.4703V18.518H87.2197V15.3896Z" fill="#0086FF"/>
<path d="M81.4703 25.7367H78.2021V7.42368H89.1782V10.602H81.4703V15.3896H87.2198V18.518H81.4703V25.7367Z" fill="#0086FF"/>
<path d="M114.386 22.7383C113.926 23.0375 113.384 23.1893 112.835 23.1731C112.288 23.1904 111.749 23.0357 111.296 22.7308C110.866 22.4241 110.547 21.989 110.383 21.4889C110.197 20.9667 110.107 20.0747 110.107 18.7578V12.2612H106.871V17.8558C106.871 20.0297 107.005 21.5464 107.271 22.3535C107.593 23.4553 108.27 24.4213 109.199 25.1021C110.107 25.7567 111.319 26.0866 112.799 26.0866C114.164 26.0866 115.313 25.8042 116.186 25.242C117.089 24.6579 117.791 23.8129 118.197 22.8208C118.569 21.9562 118.758 20.322 118.758 17.9433V12.2637H115.557V18.8653C115.557 20.1921 115.484 21.0392 115.331 21.454C115.162 21.9714 114.831 22.4215 114.386 22.7383Z" fill="#0086FF"/>
<path d="M115.557 18.8653V12.2637H118.755V17.9558C118.755 20.3295 118.566 21.9687 118.194 22.8332C117.788 23.8254 117.087 24.6704 116.183 25.2545C115.303 25.8167 114.172 26.0991 112.797 26.0991C111.316 26.0991 110.104 25.7692 109.197 25.1146C108.268 24.4338 107.59 23.4678 107.269 22.366C107.002 21.5489 106.869 20.0322 106.869 17.8683V12.2637H110.112V18.7603C110.112 20.0772 110.202 20.9692 110.389 21.4914C110.553 21.9884 110.871 22.4207 111.299 22.7258C111.752 23.0307 112.29 23.1854 112.837 23.1681C113.385 23.1852 113.926 23.0353 114.386 22.7383C114.83 22.4252 115.162 21.9797 115.333 21.4665C115.484 21.0392 115.557 20.1921 115.557 18.8653Z" fill="#0086FF"/>
<path d="M129.098 11.9114C128.442 11.912 127.793 12.0393 127.187 12.2862C126.42 12.6295 125.711 13.087 125.083 13.643L124.856 13.8304V12.2637H121.659V25.7567H124.856V20.3645C124.856 18.9078 124.909 17.9857 125.012 17.5435C125.166 16.7839 125.545 16.0876 126.101 15.5445C126.611 15.0564 127.293 14.7872 128.001 14.7949C128.521 14.7778 129.031 14.9354 129.449 15.2422C129.861 15.5749 130.15 16.0335 130.272 16.5465C130.425 17.1012 130.498 18.1831 130.498 19.8523V25.7368H133.658V16.7939C133.658 15.2521 133.266 14.0778 132.491 13.2957C132.05 12.8477 131.522 12.4939 130.938 12.2558C130.354 12.0178 129.728 11.9006 129.098 11.9114Z" fill="#0086FF"/>
<path d="M133.658 25.7368H130.498V19.8598C130.498 18.1906 130.425 17.1112 130.272 16.554C130.151 16.0382 129.862 15.5768 129.449 15.2422C129.032 14.9336 128.522 14.7743 128.001 14.7899C127.293 14.7822 126.611 15.0514 126.101 15.5395C125.545 16.0826 125.166 16.7789 125.012 17.5385C124.909 17.9807 124.856 18.9028 124.856 20.3595V25.7368H121.659V12.2437H124.856V13.8104L125.083 13.623C125.711 13.067 126.42 12.6095 127.187 12.2662C127.793 12.0193 128.442 11.892 129.098 11.8914C129.729 11.8842 130.355 12.0053 130.938 12.2472C131.521 12.4891 132.048 12.8467 132.486 13.2982C133.261 14.0778 133.653 15.2522 133.653 16.7964L133.658 25.7368Z" fill="#0086FF"/>
<path d="M171.611 13.9178L171.36 14.47V12.2637H168.647V25.7567H171.82L171.807 19.6624C171.807 17.6959 171.993 16.414 172.378 15.7244C172.562 15.393 172.834 15.1173 173.163 14.9268C173.492 14.7363 173.867 14.6381 174.248 14.6425C174.452 14.6441 174.655 14.6675 174.854 14.7124L175.767 12.2137C175.378 12.0319 174.955 11.934 174.525 11.9264C173.927 11.9218 173.342 12.0959 172.846 12.4261C172.304 12.8008 171.877 13.3171 171.611 13.9178Z" fill="#0086FF"/>
<path d="M175.767 12.1987L174.854 14.6974C174.655 14.6526 174.452 14.6291 174.248 14.6275C173.867 14.6231 173.492 14.7213 173.163 14.9118C172.834 15.1024 172.562 15.378 172.378 15.7094C171.993 16.3941 171.807 17.6809 171.807 19.6474L171.82 25.7418H168.647V12.2487H171.35V14.4551L171.601 13.9028C171.865 13.2993 172.293 12.7804 172.836 12.4036C173.332 12.0734 173.917 11.8993 174.515 11.9039C174.949 11.9125 175.375 12.013 175.767 12.1987Z" fill="#0086FF"/>
<path d="M182.625 17.6609L181.353 17.0287C180.961 16.8641 180.597 16.638 180.277 16.3591C180.119 16.1976 180.029 15.9822 180.026 15.7569C180.026 15.6142 180.061 15.4738 180.129 15.3479C180.196 15.222 180.294 15.1145 180.413 15.0348C180.708 14.8359 181.062 14.7393 181.418 14.7599C182.137 14.7599 182.927 15.1772 183.794 15.9943L185.762 14.0378C185.249 13.3713 184.587 12.8324 183.828 12.4634C183.07 12.0944 182.235 11.9054 181.391 11.9114C180.235 11.8655 179.105 12.2667 178.241 13.0308C177.854 13.3649 177.545 13.7781 177.334 14.2422C177.123 14.7063 177.015 15.2102 177.019 15.7194C177.019 17.3411 178.122 18.7179 180.302 19.8073L181.471 20.387C182.54 20.9242 183.06 21.4714 183.06 22.0636C183.055 22.2349 183.01 22.4027 182.928 22.5534C182.846 22.704 182.729 22.8333 182.587 22.9307C182.243 23.1808 181.824 23.3068 181.398 23.288C180.862 23.2621 180.34 23.1069 179.877 22.8357C179.363 22.5624 178.899 22.2032 178.507 21.7738L176.551 23.8927C177.096 24.6007 177.802 25.1699 178.612 25.5535C179.421 25.9371 180.311 26.1241 181.207 26.0991C182.683 26.0991 183.872 25.6993 184.744 24.9097C185.466 24.2474 185.922 23.3486 186.03 22.3785C186.137 21.4085 185.889 20.4324 185.33 19.6299C184.852 18.9677 183.94 18.3056 182.625 17.6609Z" fill="#0086FF"/>
<path d="M184.749 24.9097C183.877 25.6993 182.688 26.0991 181.212 26.0991C180.316 26.1241 179.426 25.9371 178.617 25.5535C177.807 25.1699 177.101 24.6007 176.556 23.8927L178.512 21.7738C178.904 22.2032 179.368 22.5624 179.882 22.8357C180.345 23.1069 180.867 23.2621 181.403 23.288C181.829 23.3068 182.248 23.1808 182.592 22.9307C182.734 22.8333 182.851 22.704 182.933 22.5534C183.015 22.4027 183.06 22.2349 183.065 22.0636C183.065 21.4715 182.545 20.9242 181.476 20.387L180.307 19.8073C178.128 18.7154 177.024 17.3411 177.024 15.7194C177.02 15.2106 177.126 14.7069 177.336 14.2428C177.546 13.7788 177.855 13.3653 178.241 13.0308C179.104 12.2685 180.23 11.8674 181.383 11.9114C182.228 11.9054 183.062 12.0944 183.821 12.4634C184.579 12.8324 185.241 13.3713 185.755 14.0378L183.791 15.9918C182.934 15.1747 182.135 14.7574 181.416 14.7574C181.059 14.7368 180.706 14.8334 180.41 15.0323C180.291 15.112 180.194 15.2195 180.126 15.3454C180.059 15.4713 180.023 15.6117 180.023 15.7544C180.026 15.9797 180.116 16.1951 180.274 16.3566C180.595 16.6355 180.958 16.8616 181.35 17.0262L182.622 17.6584C183.937 18.3031 184.85 18.9652 185.333 19.6274C185.891 20.4299 186.14 21.406 186.032 22.3761C185.924 23.3461 185.468 24.2449 184.747 24.9072L184.749 24.9097Z" fill="#0086FF"/>
<path d="M192.942 7.42368H189.654V25.7467H199.707V22.6433H192.942V7.42368Z" fill="#0086FF"/>
<path d="M199.707 22.6433V25.7367H189.652V7.42368H192.94V22.6433H199.707Z" fill="#0086FF"/>
<path d="M3.28325 27.4259V6.57412C3.28391 5.69624 3.63507 4.85451 4.25961 4.23376C4.88416 3.61301 5.73103 3.26398 6.61426 3.26332H15.1417V0H6.61426C4.86066 0.00198401 3.17946 0.695249 1.93948 1.92771C0.699495 3.16016 0.00199613 4.83116 0 6.57412L0 27.4259C0.00199613 29.1688 0.699495 30.8398 1.93948 32.0723C3.17946 33.3047 4.86066 33.998 6.61426 34H15.1417V30.7342H6.61426C5.73146 30.7335 4.88497 30.3848 4.2605 29.7646C3.63603 29.1444 3.28458 28.3033 3.28325 27.4259Z" fill="#0086FF"/>
<path d="M15.1417 30.7342V33.9975H6.61426C4.8611 33.9955 3.18027 33.3026 1.94036 32.0707C0.700453 30.8388 0.00266123 29.1684 0 27.4259L0 6.57411C0.00199613 4.83116 0.699495 3.16016 1.93948 1.92771C3.17946 0.695249 4.86066 0.00198401 6.61426 0L15.1417 0V3.26332H6.61426C5.73103 3.26398 4.88416 3.61301 4.25961 4.23376C3.63507 4.85451 3.28391 5.69624 3.28325 6.57411V27.4259C3.28458 28.3033 3.63603 29.1444 4.2605 29.7646C4.88497 30.3848 5.73146 30.7335 6.61426 30.7342H15.1417Z" fill="#0086FF"/>
<path d="M27.5934 0H19.066V3.26332H27.5934C28.4762 3.26464 29.3224 3.61396 29.9464 4.23464C30.5704 4.85532 30.9212 5.69667 30.9219 6.57411V27.4259C30.9205 28.3029 30.5694 29.1436 29.9455 29.7637C29.3216 30.3839 28.4757 30.7329 27.5934 30.7342H19.066V33.9975H27.5934C29.347 33.9955 31.0282 33.3022 32.2681 32.0698C33.5081 30.8373 34.2056 29.1663 34.2076 27.4234V6.57411C34.2056 4.83116 33.5081 3.16016 32.2681 1.92771C31.0282 0.695249 29.347 0.00198401 27.5934 0Z" fill="#0086FF"/>
<path d="M34.2076 27.4259C34.2056 29.1688 33.5081 30.8398 32.2681 32.0723C31.0282 33.3047 29.347 33.998 27.5934 34H19.066V30.7342H27.5934C28.4757 30.7329 29.3216 30.3839 29.9455 29.7637C30.5694 29.1436 30.9205 28.3029 30.9219 27.4259V6.57412C30.9212 5.69624 30.57 4.85451 29.9455 4.23376C29.321 3.61301 28.4741 3.26398 27.5908 3.26332H19.066V0H27.5934C29.347 0.00198401 31.0282 0.695249 32.2681 1.92771C33.5081 3.16016 34.2056 4.83116 34.2076 6.57412V27.4259Z" fill="#0086FF"/>
<path d="M146.791 13.1008L146.514 12.9333L146.401 12.8659C145.304 12.2392 144.06 11.91 142.794 11.9114C140.914 11.9312 139.118 12.6897 137.799 14.0213C136.48 15.3528 135.745 17.1491 135.755 19.0177C135.739 19.9496 135.914 20.875 136.269 21.7375C136.624 22.6001 137.152 23.3818 137.821 24.0351C138.465 24.6978 139.238 25.2226 140.093 25.5776C140.948 25.9325 141.867 26.1099 142.794 26.0991C144.066 26.1107 145.319 25.7884 146.426 25.1645L146.514 25.1096L146.786 24.9472V25.7367H149.984V6.95392H146.791V13.1008ZM145.642 21.9887C145.282 22.3684 144.846 22.6685 144.362 22.8696C143.877 23.0706 143.356 23.1681 142.831 23.1556C142.309 23.1718 141.789 23.0777 141.306 22.8796C140.823 22.6814 140.387 22.3838 140.028 22.0062C139.297 21.2416 138.925 20.2321 138.925 19.0077C138.906 18.4658 138.994 17.9255 139.186 17.4178C139.377 16.9101 139.668 16.445 140.041 16.0492C140.786 15.3107 141.795 14.896 142.846 14.896C143.898 14.896 144.907 15.3107 145.652 16.0492C146.4 16.8556 146.796 17.924 146.753 19.0202C146.791 20.1166 146.391 21.1834 145.642 21.9887Z" fill="#0086FF"/>
<path d="M100.974 12.8659C99.8737 12.2381 98.627 11.909 97.3586 11.9114C95.4787 11.9312 93.6831 12.6897 92.3641 14.0213C91.0452 15.3528 90.3101 17.1491 90.3195 19.0177C90.3037 19.9494 90.4785 20.8745 90.8333 21.737C91.1881 22.5995 91.7155 23.3813 92.3835 24.0351C93.0287 24.6992 93.8038 25.2249 94.6612 25.5798C95.5186 25.9348 96.44 26.1115 97.3687 26.0991C98.6412 26.1104 99.8942 25.788 101.001 25.1645C102.089 24.5479 102.988 23.6499 103.603 22.5659C104.232 21.4791 104.562 20.2466 104.559 18.9927C104.563 17.7467 104.232 16.5222 103.602 15.4453C102.971 14.3684 102.063 13.478 100.971 12.8659H100.974ZM100.22 21.9937C99.8524 22.3613 99.4157 22.6531 98.9346 22.8522C98.4535 23.0513 97.9376 23.1538 97.4164 23.1538C96.8953 23.1538 96.3793 23.0513 95.8983 22.8522C95.4172 22.6531 94.9805 22.3613 94.6134 21.9937C93.8793 21.2391 93.5198 20.2396 93.5198 19.0052C93.4817 17.9113 93.8823 16.8471 94.6335 16.0467C95.3786 15.3081 96.388 14.8933 97.4403 14.8933C98.4927 14.8933 99.5021 15.3081 100.247 16.0467C100.995 16.8531 101.391 17.9215 101.348 19.0177C101.38 20.1181 100.973 21.1863 100.214 21.9887L100.22 21.9937Z" fill="#0086FF"/>
<path d="M166.319 19.345C166.319 17.1187 165.646 15.3021 164.308 13.9478C162.971 12.5935 161.221 11.9114 159.092 11.9114C158.158 11.8868 157.228 12.0551 156.363 12.4056C155.498 12.7561 154.715 13.2813 154.064 13.9478C152.736 15.3021 152.053 17.0287 152.053 19.0802C152.028 20.0083 152.194 20.9317 152.54 21.7942C152.886 22.6567 153.404 23.4403 154.064 24.0976C155.396 25.4269 157.148 26.0966 159.273 26.0966C160.501 26.1269 161.72 25.8791 162.838 25.3719C163.822 24.8811 164.671 24.1578 165.309 23.2655L162.619 22.0162C161.713 22.8814 160.501 23.3571 159.245 23.3405C158.245 23.3781 157.265 23.0601 156.48 22.4434C155.747 21.831 155.27 20.9698 155.14 20.0272L155.115 19.8698H166.294L166.319 19.345ZM155.23 17.421L155.318 17.2286C155.718 16.3616 156.16 15.7444 156.636 15.3946C157.396 14.8366 158.32 14.5425 159.265 14.5575C160.135 14.544 160.987 14.8066 161.696 15.3071C162.373 15.7768 162.87 16.4615 163.104 17.2486L163.157 17.4235L155.23 17.421Z" fill="#0086FF"/>
<path d="M72.3094 12.8659C71.2096 12.2376 69.9628 11.9084 68.6943 11.9114C66.8144 11.9312 65.0188 12.6897 63.6998 14.0213C62.3809 15.3528 61.6458 17.1491 61.6552 19.0177C61.6399 19.9495 61.8151 20.8747 62.1703 21.7372C62.5256 22.5997 63.0533 23.3815 63.7217 24.0351C64.3665 24.699 65.1412 25.2246 65.9981 25.5795C66.8551 25.9345 67.7761 26.1113 68.7044 26.0991C69.9777 26.1107 71.2316 25.7884 72.3396 25.1645C73.4259 24.5471 74.3241 23.6492 74.939 22.5659C75.5694 21.4786 75.8998 20.2451 75.8968 18.9902C75.9021 17.744 75.5723 16.5189 74.9416 15.4418C74.3109 14.3646 73.4022 13.4745 72.3094 12.8634V12.8659ZM71.5552 21.9937C71.1947 22.3732 70.758 22.6732 70.2734 22.8742C69.7887 23.0752 69.267 23.1728 68.7421 23.1606C68.2209 23.1747 67.7027 23.0791 67.2214 22.8802C66.74 22.6812 66.3064 22.3834 65.949 22.0062C65.2175 21.2416 64.8479 20.2321 64.8479 19.0077C64.8098 17.9138 65.2104 16.8496 65.9616 16.0492C66.7063 15.3107 67.7153 14.896 68.7672 14.896C69.8192 14.896 70.8281 15.3107 71.5728 16.0492C72.3218 16.8554 72.7187 17.9237 72.6764 19.0202C72.7106 20.1183 72.3067 21.1853 71.5527 21.9887L71.5552 21.9937Z" fill="#0086FF"/>
<path d="M212.285 12.4661V13.1008L212.008 12.9333L211.898 12.8659C210.798 12.2379 209.551 11.9087 208.283 11.9114C206.403 11.9312 204.607 12.6897 203.288 14.0213C201.969 15.3528 201.234 17.1491 201.243 19.0177C201.228 19.9496 201.403 20.875 201.758 21.7375C202.113 22.6001 202.641 23.3818 203.31 24.0351C203.955 24.699 204.73 25.2246 205.586 25.5795C206.443 25.9345 207.364 26.1113 208.293 26.0991C209.566 26.1108 210.82 25.7885 211.928 25.1645L212.016 25.1096L212.285 24.9472V25.7368H215.485V12.4661H212.285ZM211.138 21.9887C210.771 22.3563 210.335 22.6481 209.854 22.8472C209.373 23.0463 208.857 23.1488 208.335 23.1488C207.814 23.1488 207.298 23.0463 206.817 22.8472C206.336 22.6481 205.899 22.3563 205.532 21.9887C204.803 21.2241 204.431 20.2146 204.431 18.9902C204.412 18.4483 204.501 17.908 204.692 17.4003C204.884 16.8927 205.175 16.4276 205.547 16.0317C206.292 15.2932 207.301 14.8785 208.353 14.8785C209.405 14.8785 210.414 15.2932 211.159 16.0317C211.907 16.8381 212.303 17.9066 212.26 19.0027C212.279 19.5492 212.19 20.0942 211.998 20.6066C211.806 21.1189 211.514 21.5886 211.138 21.9887Z" fill="#0086FF"/>
<path d="M230.665 13.7429C229.39 12.5582 227.708 11.9021 225.963 11.9089C224.695 11.9059 223.448 12.2351 222.348 12.8634L222.235 12.9308L221.959 13.0983V6.95392H218.761V25.7367H221.959V24.9372L222.23 25.0996C222.257 25.1189 222.286 25.1364 222.316 25.1521C223.423 25.7777 224.677 26.101 225.951 26.0891C226.879 26.1013 227.8 25.9245 228.657 25.5696C229.514 25.2146 230.289 24.689 230.934 24.0251C231.602 23.3715 232.13 22.5897 232.485 21.7272C232.84 20.8647 233.015 19.9395 233 19.0077C233.018 18.0144 232.818 17.0292 232.415 16.1201C232.011 15.2111 231.414 14.4 230.665 13.7429ZM228.711 22.0037C228.354 22.3809 227.92 22.6787 227.439 22.8777C226.957 23.0766 226.439 23.1722 225.918 23.1581C225.393 23.17 224.871 23.072 224.387 22.8705C223.902 22.6691 223.465 22.3686 223.105 21.9887C222.728 21.5871 222.435 21.1154 222.243 20.6008C222.051 20.0862 221.963 19.5388 221.984 18.9902C221.942 17.8943 222.338 16.8263 223.085 16.0193C223.83 15.2806 224.839 14.8658 225.892 14.8658C226.944 14.8658 227.954 15.2806 228.699 16.0193C229.45 16.8196 229.85 17.8838 229.812 18.9777C229.812 20.2396 229.443 21.2391 228.711 22.0062V22.0037Z" fill="#0086FF"/>
</g>
<defs>
<clipPath id="clip0_4_1519">
<rect width="233" height="34" fill="white"/>
</clipPath>
</defs>
</svg>
